<svg xmlns="http://www.w3.org/2000/svg" width="512" height="512"><path fill="#fefefe" d="M0 0h512v512H0Z"/><path fill="#8cc177" d="M249 68h7v2l1.813.438c1.749.45 3.474.99 5.187 1.562l.938 2.5L265 77c2.041.887 2.041.887 4 1v2l4 2v2l4 1v2l2.875.688C283 89 283 89 284.125 91.562L285 94c2.041.887 2.041.887 4 1v2l4 2v2l2.375.313C298 102 298 102 300 105l3 1 1.938 2.438c2.04 2.534 3.193 3.266 6.062 4.562 1.75 1.5 1.75 1.5 3 3v2l1.875.313C318 119 318 119 320 122l3 1 1.938 2.438c2.04 2.534 3.193 3.266 6.062 4.562 1.75 1.5 1.75 1.5 3 3v2l1.875.313C338 136 338 136 340 139l3 1v2l3 1q1.53 1.47 3 3l2 1v2l3 1v2l1.938.313L358 153l1 3 3 1v2l1.813.313c2.496.784 3.444 1.786 5.187 3.687l2 1v2l3 1 1 2c2.017 1.134 2.017 1.134 4 2v2l3 1v2l1.813.313c2.496.784 3.444 1.786 5.187 3.687l2 1v2l3 1v2l2.875.688C400 188 400 188 401.125 190.563L402 193c2.041.887 2.041.887 4 1v2l4 2v2l4 1v2l4 2v2h3l1 3 2 1c.627 9.123.627 9.123-1.875 12.625C420 225 420 225 418 225v2h-25v25l5-1v-2l7-1v-2c3.877-1.193 6.916-2 11-2v-2l6-1v-2c3.877-1.193 6.916-2 11-2v-2l7-1v-2l5-1v-2l10-2v-2c4 0 4 0 6.222 1.685 2.1 2.734 2.267 3.953 2.232 7.359v3.032l-.063 3.252-.018 3.346c-.022 3.526-.072 7.05-.123 10.576q-.03 3.585-.055 7.172-.067 8.79-.195 17.578h-2l.07 2.57c.135 8.733-.603 16.81-2.07 25.43h-2l-.184 2.047-.253 2.703-.247 2.672A44 44 0 0 1 455 321h-2l-2 9h-2l-.438 2.875C448 336 448 336 447 338h-2l-1 5-3 1c-.733 2.015-.733 2.015-1 4h-2l-.625 2.188c-1.783 3.647-4.194 5.33-7.375 7.812l-2.25 2.313C426 362 426 362 424 362v2l-4 1v2c-2.647 1.46-3.894 2-7 2v2l-5 1v2l-7 1v2q-2.625.506-5.25 1l-2.953.563C390 379 390 379 386 379v2c-5.08.847-9.848 1.09-15 1v2l-3.543.227q-2.322.196-4.644.398l-2.33.137c-4.415.38-4.415.38-8.08 2.663-1.187 1.484-2.3 3.026-3.403 4.575h-2l-1 4h-3l-1 3h-2l-1 3-3 1-1 2c-2.563.625-2.563.625-5 1v2c-4.12 1.292-7.668 2.263-12 2v2H131v-2l-2.313-.438c-5.48-1.147-7.356-3.06-10.687-7.562v-3h-2c-1.974-4.13-2.247-7.46-2.24-12.017l-.006-2.104c-.003-2.32.008-4.64.019-6.96v-4.998c-.002-4.518.01-9.036.024-13.554.013-4.723.014-9.446.016-14.17q.011-13.413.043-26.827c.022-10.181.033-20.362.043-30.544q.032-31.413.101-62.826h-2v2c-4.458.087-8.916.14-13.375.188l-3.852.076-3.671.029-3.396.048L85 227c-2-3-2-3-2-6h-2c-1.286-7.429-1.286-7.429 0-11h2l.813-2.375C85 205 85 205 88 203h3l.625-2.375c1.85-3.534 3.702-3.4 7.375-4.625a208 208 0 0 0 2-5q2.488-.56 5-1c1.36-1.968 1.36-1.968 2-4h2v-2l1.875-.25c2.31-.563 2.31-.563 3.375-2.813L116 179h3l1-3h2l1-3h3l2-4h2v-2l1.875-.25c2.31-.563 2.31-.563 3.375-2.813L136 162h3l1-3h2l1-3h3l2-4h2v-2l3-1 2.5-3c2.5-3 2.5-3 5.5-4l2.063-2.063L165 138h2v-2c1.973-2.349 3.003-3.001 6-4l2.063-2.063L177 128h2v-2c5.476-5 5.476-5 8-5v-2c1.813-2.125 1.813-2.125 4-4h3l1-3c2.001-2.365 2.968-2.99 6-4l2-2.063c2-1.937 2-1.937 5-1.937l.625-2.375c1.85-3.534 3.702-3.4 7.375-4.625 1.219-2.504 1.219-2.504 2-5l3-1 2-2.063C225 87 225 87 228 87l.625-2.375c1.85-3.534 3.702-3.4 7.375-4.625 1.219-2.504 1.219-2.504 2-5l3-1 1.375-1.5c2.094-1.933 3.847-2.125 6.625-2.5Z"/><path fill="#105d2e" d="M127 218c2.969 2.207 3.829 3.486 5 7 .092 2.156.122 4.315.12 6.473l.003 2q0 3.324-.01 6.647l.001 4.76q-.001 6.467-.013 12.935-.007 6.756-.008 13.513-.005 12.797-.021 25.595-.016 14.568-.022 29.136-.016 29.97-.05 59.941h2l1 5h192v-2l5-1v-2c2.728-2.356 5.437-4.6 8.375-6.688 2.64-3.756 1.93-7.865 1.625-12.312h-2c-1.905-8.997-2.313-17.678-2.26-26.827.01-2.236 0-4.47-.013-6.706-.007-7.997.422-15.648 2.273-23.467h2l1-8h2l2-9h2l.438-1.813c.953-3.707 1.904-5.529 4.562-8.187l1-3a381 381 0 0 1 6-5l2-3h2l1-3 3-1 2-3h2l.076-3.624q.142-6.651.296-13.301.065-2.88.125-5.759.088-4.137.187-8.273l.05-2.604.06-2.427.048-2.133C374 225 374 225 375 222c3.066-2.33 6.369-2.415 10.094-2.324C387 220 387 220 389.5 221.813 391 224 391 224 391 227h2v25l5-1v-2l7-1v-2c3.877-1.193 6.916-2 11-2v-2l6-1v-2c3.877-1.193 6.916-2 11-2v-2l7-1v-2l5-1v-2l10-2v-2c4 0 4 0 6.222 1.685 2.1 2.734 2.267 3.953 2.232 7.359v3.032l-.063 3.252-.018 3.346c-.022 3.526-.072 7.05-.123 10.576q-.03 3.585-.055 7.172-.067 8.79-.195 17.578h-2l.07 2.57c.135 8.733-.603 16.81-2.07 25.43h-2l-.184 2.047-.253 2.703-.247 2.672A44 44 0 0 1 455 321h-2l-2 9h-2l-.438 2.875C448 336 448 336 447 338h-2l-1 5-3 1c-.733 2.015-.733 2.015-1 4h-2l-.625 2.188c-1.783 3.647-4.194 5.33-7.375 7.812l-2.25 2.313C426 362 426 362 424 362v2l-4 1v2c-2.647 1.46-3.894 2-7 2v2l-5 1v2l-7 1v2q-2.625.506-5.25 1l-2.953.563C390 379 390 379 386 379v2c-5.08.847-9.848 1.09-15 1v2l-3.543.227q-2.322.196-4.644.398l-2.33.137c-4.415.38-4.415.38-8.08 2.663-1.187 1.484-2.3 3.026-3.403 4.575h-2l-1 4h-3l-1 3h-2l-1 3-3 1-1 2c-2.563.625-2.563.625-5 1v2c-4.12 1.292-7.668 2.263-12 2v2H131v-2l-2.313-.438c-5.48-1.147-7.356-3.06-10.687-7.562v-3h-2c-1.965-4.12-2.251-7.446-2.254-11.99l-.01-2.096c-.007-2.31-.001-4.621.005-6.932l-.01-4.978c-.01-4.502-.006-9.003 0-13.505.005-4.71 0-9.422-.002-14.132q-.005-11.865.01-23.73.015-13.72-.003-27.44-.013-11.78-.006-23.557.007-7.035-.003-14.072-.007-6.613.01-13.225.004-2.43-.002-4.857c-.006-2.208.001-4.415.011-6.623l.002-3.745c.302-3.738 1.4-5.792 3.377-8.868 3.074-2.05 6.362-1.902 9.875-1.25"/><path fill="#115f30" d="M249 68h7v2l1.813.438c1.749.45 3.474.99 5.187 1.562l.938 2.5L265 77c2.041.887 2.041.887 4 1v2l4 2v2l4 1v2l2.875.688C283 89 283 89 284.125 91.562L285 94c2.041.887 2.041.887 4 1v2l4 2v2l2.375.313C298 102 298 102 300 105l3 1 1.938 2.438c2.04 2.534 3.193 3.266 6.062 4.562 1.75 1.5 1.75 1.5 3 3v2l1.875.313C318 119 318 119 320 122l3 1 1.938 2.438c2.04 2.534 3.193 3.266 6.062 4.562 1.75 1.5 1.75 1.5 3 3v2l1.875.313C338 136 338 136 340 139l3 1v2l3 1q1.53 1.47 3 3l2 1v2l3 1v2l1.938.313L358 153l1 3 3 1v2l1.813.313c2.496.784 3.444 1.786 5.187 3.687l2 1v2l3 1 1 2c2.017 1.134 2.017 1.134 4 2v2l3 1v2l1.813.313c2.496.784 3.444 1.786 5.187 3.687l2 1v2l3 1v2l2.875.688C400 188 400 188 401.125 190.563L402 193c2.041.887 2.041.887 4 1v2l4 2v2l4 1v2l4 2v2h3l1 3 2 1c.627 9.123.627 9.123-1.875 12.625C420 225 420 225 418 225v2c-1.437.081-2.874.14-4.313.188l-2.425.105C409 227 409 227 407.207 225.613 406 224 406 224 406 222l-2.438-.875C401 220 401 220 400 218l-3-1-1.938-2.438c-1.976-2.455-3.187-3.432-6.062-4.562v-2l-3-1-1-2c-2.017-1.134-2.017-1.134-4-2v-2l-3-1v-2l-1.938-.313L374 197l-1-3c-2.015-.733-2.015-.733-4-1v-2l-3-1q-1.53-1.47-3-3l-2-1v-2l-3-1-1-2c-2.017-1.134-2.017-1.134-4-2v-2l-3-1v-2l-1.75-.25c-2.904-.968-4.287-2.437-6.25-4.75v-2l-4-1v-2l-2.875-.688C332 162 332 162 330.875 159.438L330 157c-2.041-.887-2.041-.887-4-1v-2l-4-2v-2l-4-1v-2l-4-2v-2l-4-1v-2l-2.875-.688C304 138 304 138 302.875 135.438L302 133c-2.041-.887-2.041-.887-4-1v-2l-5-2v-2l-1.875-.313C289 125 289 125 287 122l-3-1-4-5-3-1c-2.188-1.938-2.188-1.938-4-4v-2l-1.875-.313C269 108 269 108 267 105l-3-1-5-6-3-1-1.438-1.625c-1.458-1.6-1.458-1.6-3.5-1.313-2.238.872-2.238.872-4.125 3L245 99h-3l-.813 2.375C240 104 240 104 237 106h-3l-.625 2.375c-1.85 3.534-3.702 3.4-7.375 4.625-1.219 2.504-1.219 2.504-2 5l-3 1-2.5 3c-2.5 3-2.5 3-5.5 4l-2 2.063C209 130 209 130 206 130l-.75 2.438C204 135 204 135 201.875 135.813L200 136v2l-2.438.813L195 140l-1 3h-3l-2 4h-2v2l-1.875.25c-2.31.563-2.31.563-3.375 2.813L181 154h-3l-1 3h-2l-1 3h-3l-2 4h-2v2l-1.875.25c-2.31.563-2.31.563-3.375 2.813L161 171h-2v2l-1.875.188L155 174l-.938 2.438C153 179 153 179 150.5 180.125L148 181l-2 3h-2v2l-1.875.813C139.7 187.956 139.7 187.956 138 191h-3l-1 3h-2l-2 4h-3l-1 3h-2l-2 4h-3l-1 3h-2l-1 3-3 1-2 3h-2v2l-1.938.313L104 218l-1 3c-2.001 2.365-2.968 2.99-6 4l-1 2c-1.79.08-3.583.14-5.375.188l-3.023.105L85 227c-2-3-2-3-2-6h-2c-1.286-7.429-1.286-7.429 0-11h2l.813-2.375C85 205 85 205 88 203h3l.625-2.375c1.85-3.534 3.702-3.4 7.375-4.625a208 208 0 0 0 2-5q2.488-.56 5-1c1.36-1.968 1.36-1.968 2-4h2v-2l1.875-.25c2.31-.563 2.31-.563 3.375-2.813L116 179h3l1-3h2l1-3h3l2-4h2v-2l1.875-.25c2.31-.563 2.31-.563 3.375-2.813L136 162h3l1-3h2l1-3h3l2-4h2v-2l3-1 2.5-3c2.5-3 2.5-3 5.5-4l2.063-2.063L165 138h2v-2c1.973-2.349 3.003-3.001 6-4l2.063-2.063L177 128h2v-2c5.476-5 5.476-5 8-5v-2c1.813-2.125 1.813-2.125 4-4h3l1-3c2.001-2.365 2.968-2.99 6-4l2-2.063c2-1.937 2-1.937 5-1.937l.625-2.375c1.85-3.534 3.702-3.4 7.375-4.625 1.219-2.504 1.219-2.504 2-5l3-1 2-2.063C225 87 225 87 228 87l.625-2.375c1.85-3.534 3.702-3.4 7.375-4.625 1.219-2.504 1.219-2.504 2-5l3-1 1.375-1.5c2.094-1.933 3.847-2.125 6.625-2.5Z"/><path fill="#8bc178" d="M449 245c.213 18.117.295 35.99-2 54h-2l.125 2.875c.02 4.832-1.067 9.431-2.125 14.125h-2l-1 7h-2l-.438 2.313C437 328 437 328 436 331h-2l-.813 2.813c-1.134 3.044-1.884 4.084-4.187 6.187l-1 3c-5.465 5-5.465 5-8 5v2c-2.017 2.421-4.088 3.817-7 5h-3v2l-5 1v2c-3.877 1.193-6.916 2-11 2v2c-4.053.982-7.839 1.082-12 1v2l-16 1 1-4h2l.438-1.813c.45-1.749.99-3.474 1.562-5.187h2l1-6 3-1 .438-2.375C378 345 378 345 379 343h2l2-6h2l.438-1.813c.45-1.749.99-3.474 1.562-5.187h2l.813-2.813c1.097-2.945 1.72-4.337 4.187-6.187h2l2-5h2l.75-2.75c1.298-3.375 2.47-4.991 5.25-7.25h2l2-4h2l.188-2.188c1.067-3.696 2.92-5.343 5.812-7.812h2l.75-2.25c1.355-2.98 2.76-4.65 5.25-6.75h2v-4l-8 1v2l-4 1v2l-6 2v2l-1.875.188L406 290l-.875 2.438L404 295l-6 2a125 125 0 0 0-2 5l-2.5.938L391 304c-.73 1.977-1.394 3.98-2 6-2 2.375-2 2.375-4 4h-2l-.875 2.938C381 320 381 320 379 321l-1 2.5c-1 2.5-1 2.5-3 3.5-1.134 2.017-1.134 2.017-2 4h-2l-.438 2.375C370 336 370 336 369 338h-2l-2 7h-2l-.367 1.715-.508 2.223-.492 2.214C361 353 361 353 359 354l-.938 3-1.062 3-3 1c-1-1-1-1-1.063-4.063L353 354h-2v-30h2l-.125-3c-.017-4.238.983-7.932 2.125-12h2l2-9h2l.313-2.313c.762-2.978 1.538-3.624 3.687-5.687l.813-2.375c1.616-3.573 4.145-5.217 7.187-7.625l2-3 3-1 1.563-1.563L381 275h2v-2l4-1v-2l9-2v-2l5-1v-2c3.371-1.498 5.204-2 9-2v-2l7-1v-2l7-1v-2c3.62-1.316 6.096-2 10-2v-2l9-1v-2c2.076-.553 3.844-1 6-1"/><path fill="#0d5d2d" d="M230 171q8.89-.111 17.78-.165 3.024-.022 6.05-.061c2.896-.037 5.793-.054 8.69-.067.903-.015 1.806-.03 2.737-.047h2.547l2.24-.02c2.568.473 3.432 1.26 4.956 3.36.36 1.917.36 1.917.34 4.104v2.487l-.047 2.67-.013 2.746c-.017 2.893-.054 5.787-.092 8.68q-.024 2.943-.042 5.885-.051 7.215-.146 14.428h-2v3h-2v2h-39v-2l-3-1c-1.276-3.827-1.162-7.442-1.168-11.43l-.01-2.507q-.007-2.625-.007-5.25c-.002-2.67-.02-5.341-.04-8.012q-.005-2.553-.005-5.106l-.022-2.412c.017-4.219.311-7.43 2.252-11.283"/><path fill="#105e2d" d="M209 323c3.375.313 3.375.313 7 1 2 3 2 3 2 6l3 1v2l1.938.375L225 334l1 2c1.979.727 3.98 1.398 6 2v2l6 1v2h27v-2l7-1v-2c2.647-1.46 3.894-2 7-2l.813-2.313c1.147-2.596 2.133-3.812 4.187-5.687l1-2h2v-2c3.765-1.05 5.376-1.34 8.875.563C298 327 298 327 298.313 330.25L298 333h-2l-.25 1.75c-.968 2.904-2.437 4.287-4.75 6.25h-2l-2 4h-2v2l-4 1v2l-5 1v2c-3.83 1.802-6.781 2.196-11 2v2c-8.827 1.693-18.162 1.683-27 0v-2l-3.875-.438c-2.382-.268-3.97-.484-6.125-1.562v-2l-6-1v-2l-1.875-.313C218 347 218 347 216 344l-3-1c-3.167-2.407-3.92-5.26-5-9h-2v-8h2Z"/><path fill="#115e2d" d="M191 270v3h2l.813 2.375c1.035 2.906 1.035 2.906 4.187 4.625v2h18l2-4h2l2-8 7-1 1 3 3 1c.125 6.625.125 6.625-1 10h-2l-.75 2.938L228 289c-2.125.875-2.125.875-4 1v2l-4 1v2c-9.07 2.687-16.93 2.687-26 0v-2l-1.938-.375L190 292l-1-2-3-1c-.688-2.063-.688-2.063-1-4h-2c-2.255-4.51-2.243-8.057-2-13 2.143-4.285 6.043-2.791 10-2"/><path fill="#115e2c" d="M280 270c2.274 1.685 2.963 2.905 4 5.563.863 2.75.863 2.75 4 4.437v2h18l2-4h2l2-6h2l1-3c2.343.256 4.678.593 7 1 1.572 3.143 1.232 6.558 1 10l-1 3h-2l-.313 1.813c-.785 2.5-1.656 3.562-3.687 5.187h-2v2l-4 1v2c-9.07 2.687-16.93 2.687-26 0v-2l-1.938-.375L280 292l-1-2-3-1c-.688-2.063-.688-2.063-1-4h-2c-2.32-5.324-1.915-9.438-1-15 3.35-1.117 4.673-.998 8 0"/><path fill="#166235" d="M182 409q26.156-.035 52.31-.052 12.144-.007 24.288-.023 10.582-.015 21.163-.02 5.606 0 11.211-.01c4.167-.009 8.334-.009 12.5-.009l3.775-.01 3.425.004 2.99-.003C316 409 316 409 318 410v2h-6v-2H182Z"/><path fill="#125824" d="M428 279v4h-2l-2 4h-2l-.75 2.313c-1.36 2.923-2.566 3.987-5.25 5.687v-4h2v-4l-1.75 1c-2.25 1-2.25 1-6.25 1v-2l6-2v-2l4-1v-2c2.709-1.354 5.01-1.065 8-1"/><path fill="#236431" d="M228 176h2q.325 7.393.592 14.789.095 2.516.207 5.031c.106 2.41.193 4.82.275 7.23l.113 2.274c.062 2.123.062 2.123-.187 5.676l-3 3Z"/><path fill="#1f5a36" d="M455 225h4c2.176 3.264 2.246 4.159 2.227 7.93v3.033l-.032 3.267-.008 3.35c-.011 3.536-.037 7.072-.062 10.607q-.016 3.593-.027 7.186-.034 8.814-.098 17.627h-1v-47h-2v-2l-5-1 2-1Z"/><path fill="#166136" d="M258 409q11.292-.034 22.583-.052 5.242-.007 10.486-.023c4.016-.013 8.032-.018 12.048-.023l3.813-.015h3.519l3.109-.006C316 409 316 409 318 410v2h-6v-2h-54Z"/><path fill="#eafaed" d="M393 227h24c-2 2-2 2-4.063 2.227l-2.507-.032-2.446-.015-3.109-.055L395 229v20h3v2l-5 1Z"/><path fill="#166237" d="M131 409h48v1h-44v2h-4Z"/><path fill="#185d28" d="M191 270v3h2v2l-2.313-.5c-2.723-.591-2.723-.591-5.687-.5h-2v6h-2c-.125-7.75-.125-7.75 1-10 3.478-1.16 5.459-.708 9 0"/><path fill="#164c2d" d="M391 227h2v25h-2l-.076-1.697q-.176-3.808-.361-7.615l-.12-2.67-.127-2.569-.11-2.364c-.147-2.278-.147-2.278-1.206-5.085Z"/><path fill="#265f3e" d="m218 92 5 1c-4.14 4.54-8.824 7.718-14 11l1-5 2.875-.688c3.318-1.003 3.318-1.003 4.5-3.937Z"/><path fill="#91c781" d="m233 108 3 1-3.375 3.875-1.898 2.18A91 91 0 0 1 227 119c-2 0-2 0-5-1h2l.625-2.375C226 113 226 113 229.063 111.875L232 111Z"/><path fill="#336848" d="M80 214h2l1 2 2 1v6l2 1v3h-2c-2-3-2-3-2-6h-2Z"/><path fill="#2f6445" d="m458 295 2 2c-.023 2.383-.023 2.383-.375 5.125l-.336 2.758L459 307h-3c-.178-4.548.002-7.88 2-12"/><path fill="#21612c" d="M400 296c0 3.262-.218 4.327-2 7-3.125 2.25-3.125 2.25-6 4l-2-1a91 91 0 0 1 4-4h2l.875-2.438C398 297 398 297 400 296"/><path fill="#145a24" d="M136.707 187.75 139 188l-1 3h-3l-1 3h-2l-1 3-3-1a176 176 0 0 1 2.688-4l1.511-2.25c1.801-1.75 1.801-1.75 4.508-2"/><path fill="#115725" d="M350 289c1.07 3.218.958 5.031-.25 8.188l-.766 2.105C348 301 348 301 345 302l2-9h2Z"/><path fill="#105320" d="M405 358h3v2h-2v2c-4.266 1.138-7.565 2-12 2v-2l11-2Z"/><path fill="#236931" d="m250.445 354.855 2.68.332 2.695.293 2.18.52 1 2h-14c3-3 3-3 5.445-3.145"/><path fill="#135623" d="m373 330 3 2-1.313 1.188c-1.835 1.827-1.835 1.827-3.187 4.5L370 340h-3v-2h2l.875-3.438L371 331Z"/><path fill="#2c6141" d="m455 308 2 2c-.242 2.602-.242 2.602-.875 5.625l-.617 3.04L455 321h-3c.549-4.571 1.417-8.674 3-13"/><path fill="#155a24" d="m198 139-3 1-1 3h-3l-2 4-3-1 2-1 1.313-2.438c2.161-3.282 4.843-5.484 8.687-3.562"/><path fill="#94c985" d="m190 145 2 1c-3.821 4.913-6.957 7.986-13 10v-2c5.476-5 5.476-5 8-5v-2Z"/><path fill="#316647" d="M200 109c0 4 0 4-1.688 6.313C196 117 196 117 193.25 116.75L191 116l3-1 1-3c2.556-3 2.556-3 5-3"/><path fill="#2f5f43" d="m88 203 1 4-4 1-1 5-1-2-2-1h2l.813-2.375C85 205 85 205 88 203"/><path fill="#0f5424" d="m441 316 4 1-1.375 2.25A89 89 0 0 0 440 326h-2v-3h2Z"/><path fill="#255638" d="M391 227h2v15h-1l-.148-1.863-.227-2.45c-.07-.8-.14-1.6-.21-2.425-.31-2.534-.31-2.534-2.415-5.262Z"/><path fill="#3c6c50" d="M353 383h9l-1 2-7 1-1 2-3-1h2Z"/><path fill="#245e3c" d="M398 249h2l1 3c-5.625 3-5.625 3-9 3v-3l6-1Z"/><path fill="#3f6e52" d="M455 225h4l1 6h-2v-2l-5-1 2-1Z"/><path fill="#417255" d="M305 409q2.688-.039 5.375-.063l3.023-.035C316 409 316 409 318 410v2h-6v-2h-7Z"/><path fill="#215d3a" d="M363 159c3.006 1.002 4.062 1.6 6 4v3l-4-1-.375-1.938L364 161l-2-1Z"/><path fill="#33694a" d="M131 409h14v1h-10v2h-4Z"/><path fill="#295e40" d="m333 401 2 1v3l-5 1v2h-2v-3h2v-2Z"/><path fill="#175a27" d="M407.063 301.938 410 302c-1.393 3.367-2.979 4.986-6 7a129 129 0 0 1-1-6c1-1 1-1 4.063-1.063"/><path fill="#0d5724" d="m405 292 1 2c-1.685 3.37-2.82 4.88-6 7 0-3 0-3 2-6h2Z"/><path fill="#195823" d="M209 323c3.375.313 3.375.313 7 1l2 3-1 3-1.188-1.938c-2.197-2.5-3.57-2.712-6.812-3.062Z"/><path fill="#205d39" d="m165 138 3 2-4 4-3-1c1.75-3.875 1.75-3.875 4-5"/><path fill="#1c5233" d="m451 320 2 1-2 9h-2c.537-3.377 1.11-6.697 2-10"/><path fill="#125722" d="m386 311 1 3-2 2 1 3-3 1c-.75-1.688-.75-1.688-1-4 1.938-2.75 1.938-2.75 4-5"/><path fill="#90c684" d="M379 276h2c-1.393 3.367-2.979 4.986-6 7l-2-1c2-3 2-3 5-4Z"/><path fill="#2b6144" d="M320 407h7v2l-7 1Z"/><path fill="#135a28" d="m365 363 2 1v3l3 1v2l-5-1a88 88 0 0 1-1-5Z"/><path fill="#0f541c" d="m291 335 4 2a91 91 0 0 1-4 4h-2l-1 2v-4l2-1Z"/><path fill="#8fc880" d="M425 277v2c-4.75 1.125-4.75 1.125-7 0v-2c2.667-1.333 4.167-.671 7 0"/><path fill="#21613f" d="m455 228-1 2c-2.563.625-2.563.625-5 1l-1-3c3.01-.934 3.867-1.044 7 0"/><path fill="#1e5e38" d="m181 129-1 3h-5v-3c2.49-1.245 3.41-.777 6 0"/><path fill="#135621" d="m381 319 1 2c-1.313 2.625-1.313 2.625-3 5h-2c.602-2.02 1.273-4.021 2-6Z"/><path fill="#286644" d="M116 179h2v2l2 1c-1.875 1.063-1.875 1.063-4 2l-2-1Z"/></svg>