<svg xmlns="http://www.w3.org/2000/svg" width="682.667" height="682.667" viewBox="0 0 512 512"><path d="M241 1C126.5 7.4 28.2 92.5 5.6 205c-6.5 32.4-6.4 71.2.4 103.7 20.2 96.9 97.1 174.7 194.5 196.7 33.7 7.6 73.6 7.8 108.5.5 38-7.9 76.6-26.4 108-51.7 44.7-36.2 77.3-89.5 89-145.4 6.8-32.6 6.9-71.4.4-103.8-11.5-57-44.8-111.6-90.6-148.1C365.7 16.9 305-2.5 241 1m22.8 99.2c5 2.8 159.5 159.9 161.7 164.5 7.2 15-11.2 30.5-25 21-1.6-1.1-32.7-32.3-69-69.3s-67.4-68-69.2-68.9c-4.1-2-10.1-1.9-13.9.2-1.8 1-32.8 31.9-69 68.8-36.2 36.8-67.4 68-69.4 69.2-7.1 4.6-16.9 2.4-22.3-4.9-2.9-3.8-3.4-12.3-1-16.5 2.7-4.9 157-161.4 161.6-164.1C250.5 99 254 98 256 98s5.5 1 7.8 2.2m55 129.7 59.2 59.9v59c0 32.5-.3 59.8-.6 60.7-1.7 4.2-4.3 4.5-45.8 4.5h-39.5l-2.8-2.4-2.8-2.4-.3-34.9c-.3-33.9-.4-34.8-2.4-37-2.1-2.3-2.5-2.3-27.8-2.3s-25.7 0-27.8 2.3c-2 2.2-2.1 3.1-2.4 37l-.3 34.9-2.8 2.4-2.8 2.4h-39.5c-40.4 0-42.2-.2-45.1-3.9-.9-1.2-1.2-15.9-1.3-61v-59.4l32.8-33.4c94.2-96.1 84.2-86.4 88.8-86.3 4 0 4.4.4 63.2 59.9"/></svg>